<svg width="22" height="22" version="1.1" viewBox="0 0 22 22" xmlns="http://www.w3.org/2000/svg"><path d="m4 2v18h6.5v-1.5h-5v-15h6v5h5v4h1.5v-4.082l-6.418-6.418h-.08203zm10.308 18.547c1.2302 1.2302 3.1656 1.2748 4.3399.10053 1.1743-1.1743 1.1297-3.1097-.10053-4.3399l-1.1107-1.1107-.90843.90843.80789.80789c.8947.8947 1.0744 2.1548.40335 2.8258-.67102.67102-1.9311.49135-2.8258-.40335l-1.6146-1.6146c-.8947-.8947-1.0756-2.156-.40453-2.827.09688-.09687.20905-.17124.32765-.23302l-.92617-.92617c-.10551.07978-.2138.15466-.30991.25076-1.1743 1.1743-1.1285 3.1108.10172 4.3411zm-1.6158-10.094c-1.2302-1.2302-3.1656-1.2748-4.3399-.10054-1.1743 1.1743-1.1297 3.1097.10054 4.3399l1.1107 1.1107.90843-.90843-.80789-.80789c-.8947-.8947-1.0744-2.1548-.40335-2.8258.67102-.67103 1.9311-.49135 2.8258.40335l1.6146 1.6146c.8947.8947 1.0756 2.156.40454 2.827-.09688.09688-.20905.17124-.32765.23302l.92617.92617c.10551-.07977.2138-.15466.30991-.25076 1.1743-1.1743 1.1285-3.1108-.10172-4.3411z" fill="currentColor"/></svg>